<svg xmlns="http://www.w3.org/2000/svg" width="139" height="179" viewBox="0 0 139 179" version="1.1">
	<path d="M 91.328 24.610 C 82.205 29.109, 76.194 37.589, 73.888 49.212 L 72.755 54.924 70.127 53.598 C 62.236 49.615, 53.336 47.546, 44 47.523 C 35.571 47.503, 33.851 47.819, 28.742 50.328 C 19.467 54.882, 15 62.713, 15 74.416 C 15 86.003, 19.046 97.211, 28.073 110.635 C 38.592 126.278, 53.930 139.952, 69.897 147.923 C 84.237 155.082, 88.993 156.432, 100 156.469 C 108.463 156.497, 110.136 156.188, 115.323 153.641 C 121.848 150.437, 126.335 145.161, 128.118 138.596 C 130.029 131.562, 128.685 118.621, 125.079 109.318 C 123.334 104.818, 121.462 100.987, 120.917 100.806 C 120.373 100.624, 115.106 100.892, 109.214 101.401 C 95.708 102.567, 75.886 100.921, 62.475 97.519 C 29.130 89.060, 26.875 70.780, 58 61.234 C 61.575 60.138, 66.341 58.934, 68.591 58.559 L 72.682 57.878 74.358 64.689 C 77.533 77.590, 85.316 85.913, 96.374 88.233 C 116.374 92.428, 132.897 68.994, 126.528 45.465 C 124.144 36.658, 120.015 30.789, 113.208 26.531 C 108.226 23.415, 106.795 23.003, 101.031 23.023 C 97.169 23.036, 93.204 23.685, 91.328 24.610" stroke="none" fill="#20b2e3" fill-rule="evenodd"/>
</svg>