<svg width="787" height="778" viewBox="0 0 787 778" fill="none" xmlns="http://www.w3.org/2000/svg">
<path d="M355.19 467.242C380.927 466.192 414.992 466.822 440.707 467.432C524.687 469.567 608.457 476.782 691.567 489.032C724.117 493.927 754.022 500.142 786.037 505.717L757.867 545.837C751.797 554.467 745.392 563.992 739.017 572.307L764.332 652.572C654.677 630.662 543.312 618.407 431.512 615.942C294.053 613.602 156.73 625.822 21.8425 652.397C29.821 625.657 39.1885 598.887 46.9415 572.202L17.9795 531.232C12.054 522.947 5.4915 514.197 0 505.747C12.7305 503.742 26.762 500.752 39.5785 498.422C62.4165 494.262 85.3285 490.517 108.303 487.187C190.117 475.532 272.565 468.872 355.19 467.242Z" fill="#104E7A"/>
<path d="M258.463 501.192C279.317 498.212 293.563 512.367 296.063 532.447C299.246 558.007 300.874 586.802 268.934 591.912C245.953 593.512 233.729 582.407 230.527 559.527C227.032 534.557 227.133 505.372 258.463 501.192Z" fill="white"/>
<path d="M259.507 515.622C276.973 514.717 278.085 531.852 278.765 545.092C279.393 557.347 281.575 572.372 267.603 577.092C248.955 578.387 248.665 561.427 247.692 547.372C246.797 534.437 245.106 520.662 259.507 515.622Z" fill="#104E7A"/>
<path d="M181.118 507.682C198.947 506.402 209.285 513.802 212.619 531.522L194.627 533.647C193.937 530.312 193.393 527.637 191.061 525.042C185.075 518.387 171.905 522.612 173.088 532.232C174.031 539.907 181.086 542.352 187.503 544.137C194.741 546.107 201.571 548.077 207.632 552.642C218.085 560.512 220.407 579.077 211.931 589.137C205.388 596.897 194.941 598.337 185.396 598.917C167.932 597.632 159.915 589.772 156.279 572.887C162.341 572.037 168.417 571.287 174.504 570.637C175.394 574.942 176.184 579.202 179.864 581.947C188.21 588.172 200.88 583.197 198.356 571.797C195.27 557.862 175.335 560.512 165.722 552.782C160.345 548.857 156.145 543.692 155.212 536.757C152.852 519.217 165.652 509.842 181.118 507.682Z" fill="white"/>
<path d="M433.162 498.237C449.997 499.192 467.252 499.137 484.347 500.027L484.072 514.542C473.207 514.422 461.667 513.877 450.762 513.532C450.372 520.292 450.302 527.642 450.107 534.452C459.212 534.607 469.407 534.852 478.437 535.452L478.267 549.917C468.747 549.472 459.222 549.157 449.692 548.977C449.507 552.187 449.462 555.652 449.352 558.887C449.347 563.277 449.047 568.092 448.862 572.512C459.842 572.542 471.342 573.142 482.352 573.552C482.312 578.537 482.187 583.517 481.967 588.492C464.782 587.832 447.592 587.312 430.397 586.942C430.652 567.287 431.612 547.187 432.037 527.507C432.162 521.837 432.227 502.472 433.162 498.237Z" fill="white"/>
<path d="M343.654 497.217C365.468 495.777 374.765 507.772 377.077 528.012L358.89 528.187C358.489 521.707 356.934 513.457 349.675 512.012C329.336 507.957 330.962 531.502 331.223 544.567C331.649 552.582 331.211 561.632 335.786 568.602C340.123 575.202 349.015 575.092 354.841 570.792C358.933 567.772 359.18 561.107 359.552 556.537L377.44 556.377C377.154 573.122 369.735 585.452 352.27 588.052C329.907 591.342 315.105 578.042 313.482 555.857C311.549 529.447 310.483 500.607 343.654 497.217Z" fill="white"/>
<path d="M568.297 505.447C574.427 505.807 581.937 506.692 588.052 507.472C591.742 520.857 594.272 534.292 598.352 547.902C604.352 535.232 610.507 522.632 616.812 510.107C622.407 511.047 630.197 511.712 635.992 512.382C629.992 523.237 623.862 534.017 617.602 544.722C613.857 551.222 606.317 562.702 605.427 569.587C604.257 578.637 603.302 588.992 602.572 598.122L583.867 596.372C584.997 586.597 586.577 573.977 586.897 564.232C586.992 561.312 582.282 548.097 581.032 544.287C576.707 531.367 572.462 518.417 568.297 505.447Z" fill="white"/>
<path d="M497.107 500.467C515.532 501.142 539.617 502.872 558.017 504.602L557.177 519.342L535.492 517.912C535.227 533.952 533.337 554.347 532.247 570.637L530.747 591.567L512.717 590.272C514.657 566.117 515.872 540.802 517.392 516.537C510.352 516.087 503.307 515.702 496.262 515.377C496.367 510.257 496.717 505.562 497.107 500.467Z" fill="white"/>
<path d="M393.814 497.982L412.197 497.997L411.722 586.467H393.319L393.814 497.982Z" fill="white"/>
<path d="M372.837 0.186869C386.042 -0.160631 399.872 0.0718688 413.102 0.130869C415.797 10.2049 418.292 21.1584 420.857 31.3584C431.097 31.8559 443.462 33.8384 453.727 35.2959L468.392 6.85136C482.277 9.89886 493.957 12.9449 507.562 16.7959C507.392 27.4224 507.312 38.0504 507.317 48.6789C518.892 52.5454 526.542 55.5809 537.787 60.4844C544.537 52.4969 551.837 43.8394 558.852 36.1429C570.752 41.9874 582.897 48.1864 594.237 55.0169C591.827 65.4284 588.912 75.9759 586.432 86.4734C596.287 92.7934 603.907 98.2859 613.237 105.411C621.352 99.1069 631.042 92.6034 639.527 86.6394C650.187 95.9414 659.307 104.052 669.172 114.144C664.272 123.583 659.052 132.854 653.522 141.939C660.767 149.832 667.707 158.004 674.317 166.436C683.892 162.331 694.777 159.335 703.777 155.346C711.637 165.955 719.517 178.293 726.577 189.499C719.492 196.506 712.122 205.072 705.157 212.487C710.662 222.339 714.557 230.98 719.197 241.216C729.407 240.427 740.077 238.654 750.507 237.791C755.427 250.429 759.867 263.25 763.807 276.226C755.117 282.071 746.387 287.867 737.632 293.614C740.317 303.821 742.542 314.144 744.287 324.552L775.207 329.076C777.232 340.392 778.152 357.765 778.892 369.607C769.747 372.339 758.762 376.406 749.577 379.562C750.012 389.957 749.417 400.827 748.772 411.212C757.947 415.327 768.332 419.247 777.722 423.207C776.112 436.752 774.002 450.237 771.397 463.627L740.282 466.097C738.737 472.797 737.127 479.482 735.447 486.152C728.817 484.762 722.317 483.667 715.637 482.532C722.947 459.432 728.372 422.507 729.282 398.457C733.002 308.359 700.127 220.584 638.132 155.097C580.902 93.6724 494.077 53.8789 410.192 50.9439C374.137 49.2649 338.037 53.1484 303.164 62.4574C220.944 84.3889 145.547 140.727 102.911 214.615C64.3775 279.993 49.1055 356.489 59.5815 431.652C62.247 450.802 65.569 464.412 70.5215 482.777C64.3855 483.412 56.708 484.967 50.685 486.247C48.7375 480.092 46.9555 472.452 45.313 466.107C37.0975 465.882 23.4195 464.242 14.645 463.497C12.0875 450.122 9.996 436.662 8.3745 423.142C18.092 419.282 27.7655 415.312 37.3925 411.232C36.764 400.427 36.3575 390.597 36.477 379.777C28.541 376.578 15.413 372.078 7.22 369.522C7.27 358.18 9.35651 340.221 10.727 328.955L41.5525 324.805C43.5495 314.209 45.539 304.198 48.23 293.759C39.8045 287.81 30.6495 281.963 22.011 276.263C26.5585 262.193 30.136 251.598 35.6965 237.824C45.9265 238.692 56.317 240.417 66.7675 241.25C70.8235 230.995 75.4585 222.311 80.8345 212.74C73.7305 205.076 66.6845 197.357 59.6975 189.586C64.9385 179.718 75.4145 164.403 82.1535 155.461C91.999 158.967 101.802 162.594 111.559 166.34C118.385 157.954 124.956 150.096 132.357 142.212C127.573 134.714 121.085 122.424 116.654 114.377C126.087 104.445 135.841 95.7399 146.143 86.7694C155.189 92.7669 164.087 98.9869 172.826 105.423C182.041 98.2294 189.899 92.8609 199.607 86.4074C196.832 77.0884 194.086 64.7729 191.658 55.1439C202.947 48.4109 215.422 42.1014 227.097 35.9779C234.054 44.2509 241.094 52.4534 248.217 60.5839C259.961 55.4149 266.784 52.6564 278.881 48.6469L278.619 16.7324C291.469 13.0414 304.422 9.71787 317.462 6.76637C322.556 15.9179 327.703 26.2654 332.48 35.6224C340.501 33.7069 357.034 31.9809 365.405 31.3249C367.997 20.9734 370.475 10.5934 372.837 0.186869Z" fill="#104E7A"/>
<path d="M466.067 324.257C485.072 337.898 494.542 353.757 495.852 377.363C495.937 391.202 493.312 403.402 485.707 415.177C475.812 430.307 460.277 440.852 442.557 444.457C423.692 448.367 408.577 443.447 393.009 433.172C378.223 443.017 365.477 447.622 347.274 445.112C329.861 442.717 314.11 433.517 303.479 419.517C292.704 405.202 288.169 387.137 290.901 369.43C293.811 350.015 304.027 335.916 319.422 324.445C320.713 325.101 385.796 422.377 392.899 432.967C416.487 396.712 442.007 360.374 466.067 324.257Z" fill="#104E7A"/>
<path d="M223.899 242.568L280.874 242.694L280.9 446.982L223.855 447.007L223.899 242.568Z" fill="#104E7A"/>
<path d="M636.917 641.817C644.087 642.487 654.392 643.987 661.477 645.152C657.762 649.472 653.382 653.052 649.487 657.647L647.712 668.987C647.327 672.557 646.652 676.347 646.077 679.917C640.752 686.022 622.477 700.052 615.812 704.982C535.432 763.392 435.272 787.777 337.039 772.852C274.306 763.807 214.921 738.897 164.504 700.487C159.346 696.552 143.112 684.007 139.615 679.282C138.607 672.637 137.608 663.612 136.122 657.262C132.905 653.577 127.896 648.762 124.37 645.202C131.011 644.612 139.807 643.132 146.591 642.202C147.935 641.912 147.865 641.962 149.231 642.232C155.975 647.387 156.182 661.782 158.06 670.642C224.158 727.807 308.874 758.832 396.257 757.882C468.637 757.477 539.182 735.097 598.562 693.707C606.557 688.052 621.287 677.462 628.077 670.497C630.797 658.187 628.242 651.597 636.917 641.817Z" fill="#104E7A"/>
<path d="M505.172 242.671L561.862 242.66L561.837 384.642L561.832 425.962C561.832 431.142 562.192 442.102 561.647 446.497L560.842 447.012L505.097 447.007L505.067 313.71C505.062 290.378 504.677 265.906 505.172 242.671Z" fill="#104E7A"/>
<path d="M318.979 249.211C322.484 248.994 325.177 248.931 328.703 249.187C346.428 250.553 362.892 258.882 374.494 272.353C385.58 285.638 390.966 302.766 389.476 320.005C387.866 337.926 379.971 353.557 365.942 364.827C364.285 366.158 362.687 367.858 360.895 367.677C351.1 354.663 338.688 335.453 329.464 321.734L287.901 260.398C298.337 253.523 306.496 250.292 318.979 249.211Z" fill="#104E7A"/>
<path d="M458.157 249.218C471.842 247.466 486.937 252.194 497.877 260.508C490.952 269.621 481.622 284.386 474.937 294.29L430.187 360.102L424.477 368.477C423.097 367.394 421.737 366.29 420.392 365.166C406.992 354.078 398.574 338.103 396.999 320.785C393.761 282.817 420.542 252.501 458.157 249.218Z" fill="#104E7A"/>
<path d="M281.853 629.222C283.584 628.972 285.313 629.052 286.911 629.777C299.892 635.682 312.842 640.917 326.475 645.212C371.407 658.957 419.492 658.447 464.122 643.752C469.922 641.822 475.612 639.847 481.227 637.687C486.067 635.832 497.857 629.282 502.282 629.157C509.702 628.942 520.637 630.112 528.272 630.637C520.252 635.297 512.127 639.777 503.912 644.082C490.012 651.137 470.257 658.287 455.202 662.282C399.466 677.072 342.423 671.062 289.926 647.817C278.347 642.692 268.696 637.212 257.784 630.902L281.853 629.222Z" fill="#104E7A"/>
<path d="M354.059 75.1326C371.122 73.8326 379.967 83.9938 382.837 99.7273C386.411 119.32 387.7 141.626 362.883 145.864C345.288 147.137 336.219 137.957 333.424 121.15C330.042 100.821 328.521 79.6247 354.059 75.1326ZM369.537 108.929C368.044 98.5415 367.163 86.2498 353.818 87.0593C344.844 91.1543 345.643 99.7657 346.375 108.402C347.239 118.588 348.334 136.091 362.881 133.718C365.823 132.216 368.365 130.739 369.261 127.379C370.794 121.625 370.384 114.822 369.537 108.929Z" fill="#104E7A"/>
<path d="M477.932 86.15C483.377 85.8975 490.147 87.2015 494.902 90.0679C512.347 100.579 505.872 122.689 499.862 137.896C495.912 147.884 490.062 154.117 479.467 156.586C451.127 157.138 444.932 134.954 453.882 112.386C458.907 99.7138 462.252 88.3005 477.932 86.15ZM485.067 98.8472C483.252 98.3042 481.247 98.4543 479.367 98.5318C476.897 99.6623 475.047 100.678 473.597 103.061C469.152 110.364 461.647 130.538 465.232 138.39C466.317 140.82 468.347 142.699 470.852 143.591C472.772 144.29 475.408 144.221 477.432 144.012C483.792 140.793 486.002 133.901 488.157 127.405C490.332 120.837 493.962 110.152 490.792 103.689C489.642 101.345 487.567 99.5878 485.067 98.8472Z" fill="#104E7A"/>
<path d="M137.314 275.722L150.704 282.093C127.741 339.9 123.834 397.622 141.146 457.392C142.102 460.692 145.889 468.877 145.025 471.802L143.2 472.067C139.1 472.677 134.826 473.172 130.703 473.717C108.436 409.157 110.79 338.651 137.314 275.722Z" fill="#104E7A"/>
<path d="M648.257 275.975C648.952 276.442 649.012 276.584 649.347 277.394C675.877 341.188 676.077 408.657 655.422 473.977C652.007 473.327 647.882 472.827 644.392 472.307C642.477 472.142 642.392 472.167 640.612 471.552C640.787 468.712 645.357 456.002 646.317 452.192C648.112 445.067 649.757 438.327 651.067 431.022C658.147 391.887 656.397 351.67 645.947 313.301C642.972 302.608 639.137 292.392 635.247 282.014C639.312 280.408 644.237 277.894 648.257 275.975Z" fill="#104E7A"/>
<path d="M400.092 73.0343C416.002 75.5872 446.262 71.0981 441.957 97.5275C441.007 103.368 437.582 106.192 432.997 109.316C443.292 116.037 442.847 127.619 437.102 137.358C427.292 148.056 407.182 142.985 393.806 141.702L400.092 73.0343ZM410.802 113.234C410.172 118.985 409.572 125.468 409.227 131.25C414.067 131.762 420.132 133.144 424.077 130.476C427.087 126.341 428.947 119.489 424.057 116.028C420.227 113.317 415.287 113.492 410.802 113.234ZM413.377 85.9689C412.797 91.3674 412.342 96.7794 412.017 102.199C416.312 102.566 421.097 103.489 424.947 101.901C428.012 98.1281 430.317 92.1963 425.632 88.6388C422.102 85.9588 417.602 86.1829 413.377 85.9689Z" fill="#104E7A"/>
<path d="M297.17 89.6698C311.913 89.1513 319.49 102.237 317.801 115.661C317.329 119.419 315.618 121.85 313.521 124.845C320.33 132.632 327.764 140.391 334.329 148.258C329.65 150.045 324.264 151.802 319.494 153.476C313.581 146.46 307.595 139.506 301.534 132.617C299.898 133.185 296.207 134.151 295.371 135.372C298.14 142.489 300.996 151.691 303.537 159.058C299.072 160.864 294.349 162.397 289.78 163.956C282.744 142.184 274.638 120.262 267.846 98.581C275.91 95.801 289.174 90.6888 297.17 89.6698ZM294.464 102.087C290.847 103.005 288.615 103.661 285.184 105.235C286.235 108.569 289.834 121.721 292.116 123.252L293.952 122.812C297.632 121.519 301.184 120.573 302.931 116.741C305.866 110.307 302.034 102.036 294.464 102.087Z" fill="#104E7A"/>
<path d="M180.963 153.974C197.317 169.892 213.763 185.714 230.301 201.441C227.028 205.235 223.867 208.314 220.313 211.816C213.295 205.16 206.282 198.218 199.331 191.473C195.717 194.69 189.877 201.166 186.34 204.863C193.258 211.899 200.282 218.831 207.408 225.656C204.897 228.254 202.397 230.985 199.921 233.628L197.435 235.922L148.695 187.765L158.27 177.694C164.549 183.302 171.543 190.525 177.628 196.501C181.948 192.007 186.331 187.575 190.775 183.206L171.213 164.158L180.963 153.974Z" fill="#104E7A"/>
<path d="M640.387 207.083C641.307 207.016 642.932 206.939 643.807 207.015C658.787 208.306 670.797 229.28 660.247 241.805C658.707 243.628 657.052 245.142 655.337 246.72C652.502 242.947 649.607 239.216 646.662 235.527C650.087 232.794 651.987 230.978 651.302 226.267C650.697 222.119 647.547 219.451 643.297 220.475C634.012 222.712 637.607 233.391 638.767 240.059C639.862 246.318 640.402 252.743 636.642 258.383C632.252 264.698 626.382 266.775 619.027 268.155C606.082 266.201 596.317 255.208 596.867 241.755C597.157 234.742 601.572 229.856 606.597 225.483C609.492 228.734 612.562 232.69 615.337 236.104C613.382 237.815 612.042 239.038 610.437 241.173C606.457 246.473 612.652 256.193 618.992 254.126C630.022 250.53 624.162 237.648 623.672 229.409C622.937 217.01 628.362 209.883 640.387 207.083Z" fill="#104E7A"/>
<path d="M601.952 161.64C609.937 161.34 617.012 164.272 622.127 170.351C631.907 181.972 628.927 192.534 620.377 202.922C617.152 200.155 613.212 196.146 610.082 193.138C613.387 189.635 617.247 184.12 614.047 179.312C606.682 168.241 593.802 180.228 587.757 186.514C581.687 192.826 572.077 200.678 578.217 210.136C584.657 215.833 588.392 212.764 594.182 208.126C597.642 211.385 601.117 214.927 604.502 218.284C600.112 221.895 595.987 224.861 590.317 226.011C578.222 228.712 564.737 217.992 562.952 205.962C560.592 190.078 576.682 176.393 587.787 167.6C591.942 164.308 596.842 162.453 601.952 161.64Z" fill="#104E7A"/>
<path d="M228.047 118.893L228.587 119.001C230.289 120.592 233.698 126.071 235.156 128.272L215.23 141.991C217.948 146.238 221.332 150.9 224.188 155.182C229.842 151.127 235.572 147.181 241.376 143.345C243.633 146.378 245.77 149.499 247.782 152.701C242.165 156.707 236.499 160.644 230.785 164.509C234.241 169.401 237.655 174.322 241.027 179.272C247.838 174.624 254.499 169.778 261.361 165.158L263.868 168.791C265.251 170.828 266.623 172.985 267.974 175.053C257.413 182.004 246.552 189.831 236.045 197.034C222.849 178.265 209.789 159.401 196.864 140.445C207.116 133.828 218.023 125.946 228.047 118.893Z" fill="#104E7A"/>
<path d="M525.387 101.799C537.177 107.826 554.582 117.504 565.812 124.23L560.172 134.589C555.527 132.276 550.712 129.507 546.147 126.99L527.022 161.726C524.172 166.435 521.507 171.731 518.927 176.627C514.862 174.258 510.482 171.896 506.352 169.591C515.022 153.096 524.777 136.601 533.622 120.061C528.867 117.415 524.342 114.894 519.707 112.041C521.662 108.823 523.572 105.134 525.387 101.799Z" fill="#104E7A"/>
<path d="M138.622 200.88C141.188 202.878 145.694 205.689 148.564 207.668C145.664 212.037 142.832 216.452 140.071 220.911C143.724 223.878 149.802 227.468 153.802 230.223C164.66 237.701 176.352 244.63 187.101 252.232C185.001 255.864 181.804 260.438 179.449 264.025L167.361 256.071C155.719 248.764 143.93 240.471 132.331 232.887C129.487 237.043 126.593 241.679 123.831 245.932C120.912 244.213 116.94 241.298 114.066 239.316C122.186 226.462 130.371 213.65 138.622 200.88Z" fill="#104E7A"/>
<path d="M577.382 133.039C581.252 135.713 585.087 138.733 588.837 141.595C574.962 158.878 561.602 178.769 547.837 196.428C546.807 196.037 537.942 189.27 536.427 188.162C549.657 170.006 563.587 150.775 577.382 133.039Z" fill="#104E7A"/>
<path d="M277.769 679.201C283.428 681.221 293.497 683.882 295.841 689.817C299.954 700.222 293.638 717.432 283.668 722.307C276.103 724.087 270.737 720.907 263.54 718.052C267.767 705.347 273.093 691.831 277.769 679.201ZM282.514 688.797C281.153 692.492 273.496 711.622 274.305 714.082C276.306 715.842 278.87 715.767 281.38 715.517C285.654 711.817 292.539 696.491 287.739 690.986C286.632 689.717 284.146 689.162 282.514 688.797Z" fill="#104E7A"/>
<path d="M575.477 643.656C585.407 644.496 589.457 653.077 587.592 662.151C592.722 665.511 598.342 668.922 603.102 672.712C600.792 674.182 598.597 676.086 596.457 677.821C592.896 675.306 584.467 668.262 580.517 669.877L580.192 671.111C580.677 673.466 582.332 675.227 583.817 677.212L588.182 683.242L581.382 687.962C573.602 676.587 565.917 665.147 558.327 653.642C563.407 649.937 569.417 644.906 575.477 643.656ZM574.047 651.477L568.757 654.682C571.052 658.307 573.162 661.327 575.682 664.807C577.877 663.372 579.437 662.747 580.307 659.957C581.582 655.867 578.742 651.237 574.047 651.477Z" fill="#104E7A"/>
<path d="M329.511 695.282L337.502 696.707C339.734 706.232 341.905 715.767 344.015 725.322C345.834 716.827 347.143 707.427 348.504 698.787C350.881 698.982 353.617 699.417 356.01 699.737C354.985 708.652 351.115 729.782 349.539 739.722C349.261 739.947 348.983 740.172 348.705 740.402L341.927 739.617C339.8 732.657 336.988 718.112 334.405 712.297C333.156 720.377 331.684 729.532 330.061 737.487C327.135 737.087 325.375 736.657 322.529 735.937C324.763 722.602 327.645 708.537 329.511 695.282Z" fill="#104E7A"/>
<path d="M500.807 682.582C511.667 681.632 518.812 692.042 514.922 702.137C513.092 706.882 507.122 708.737 502.667 710.307C503.737 713.487 507.237 721.371 506.972 724.312L505.713 725.036L500.067 726.752C496.097 713.682 490.587 700.816 486.257 687.786C490.502 685.931 496.447 683.902 500.807 682.582ZM496.088 691.531C497.133 694.871 498.537 701.747 501.282 703.337L503.402 702.746C505.222 701.881 506.817 701.401 507.532 699.406C509.232 694.691 506.317 689.932 501.292 689.517L496.088 691.531Z" fill="#104E7A"/>
<path d="M451.722 696.732C451.987 696.727 452.557 696.902 452.847 696.977L459.617 737.262C457.027 737.712 454.412 737.962 451.797 738.247C451.107 732.592 450.007 726.427 449.097 720.757L437.912 722.372C438.442 726.132 440.232 736.737 440.112 739.862C438.977 740.652 436.917 740.677 435.437 740.832C434.202 741.007 434.372 740.947 433.097 740.827C432.147 739.112 427.182 704.297 426.567 700.332L434.262 699.657C435.252 705.097 435.852 710.042 437.032 715.577C440.537 714.912 444.337 714.372 447.877 713.797L445.142 697.507C447.257 697.187 449.582 696.972 451.722 696.732Z" fill="#104E7A"/>
<path d="M472.762 691.607C474.084 691.95 493.562 725.091 495.552 728.361C492.993 729.181 489.887 729.957 487.257 730.687C485.773 727.942 484.537 725.672 482.838 723.042L472.588 725.542C472.598 728.457 472.512 731.507 472.472 734.432L464.762 736.177L465.812 693.517C467.987 692.832 470.532 692.212 472.762 691.607ZM472.422 703.837C472.357 708.957 472.392 713.242 472.617 718.372L479.213 716.946C479.537 715.055 473.978 705.098 472.422 703.837Z" fill="#104E7A"/>
<path d="M250.956 666.687C252.767 667.262 256.06 669.182 257.859 670.152C255.462 675.382 244.112 697.832 244.809 699.997C250.546 717.847 264.655 678.237 266.37 674.442C268.501 675.282 271.313 676.077 272.734 677.692C273.186 679.817 272.83 679.527 271.814 681.987C269.13 687.752 260.737 709.217 254.593 711.062C242.69 714.637 232.961 703.882 239.049 691.237C242.769 683.512 247.011 674.627 250.956 666.687Z" fill="#104E7A"/>
<path d="M205.807 641.627C215.412 640.882 219.601 643.727 222.17 652.997C221.163 656.782 220.788 657.937 219.118 661.462L212.617 656.872C214.456 653.382 214.844 649.817 210.345 648.407C203.777 649.057 206.406 656.882 208.168 660.587C212.815 670.362 210.975 679.757 199.017 681.752C186.522 679.442 182.704 670.127 188.683 659.332C190.675 661.232 192.867 662.682 195.109 664.277C192.713 668.112 192.083 671.447 196.566 674.042C197.777 674.147 198.27 674.407 199.412 673.712C208.17 668.362 194.284 658.182 198.294 649.062C200.154 644.827 202.137 643.512 205.807 641.627Z" fill="#104E7A"/>
<path d="M555.107 655.447C556.667 656.382 558.087 659.637 558.962 661.347L546.837 668.367C548.362 671.242 550.077 674.027 551.752 676.822C554.727 675.292 558.907 672.562 561.857 670.762L565.517 676.702L555.112 682.587C556.572 685.787 558.687 689.317 560.452 692.422C563.237 690.827 570.122 685.867 572.987 685.562L573.972 686.747L576.487 691.232L556.897 702.227C549.707 690.612 543.617 678.172 536.352 666.292C542.677 662.802 548.927 659.187 555.107 655.447Z" fill="#104E7A"/>
<path d="M305.567 689.082C312.361 690.717 319.724 692.852 326.513 694.657L324.913 701.302C320.37 700.087 315.798 698.977 311.202 697.972L308.789 707.177C313.005 708.157 316.165 708.932 320.259 710.277C319.744 712.262 319.287 714.612 318.836 716.642L306.651 713.847C306.233 716.172 305.461 718.982 304.888 721.312C304.604 722.567 304.647 722.407 304.591 723.682C306.29 725.727 314.919 727.167 318.158 728.082C317.701 730.252 317.058 732.602 316.513 734.772C309.162 732.952 301.839 731.017 294.547 728.972C298.576 716.217 301.859 702.052 305.567 689.082Z" fill="#104E7A"/>
<path d="M409.757 701.107C419.687 700.462 423.387 705.957 424.627 714.972L416.997 715.247C416.487 712.582 415.832 708.557 412.732 708.002C403.907 706.882 405.542 718.542 405.882 724.782C406.087 728.607 407.457 740.017 415.452 735.677C417.067 734.802 417.572 730.662 417.857 728.557L425.422 727.927C425.407 730.907 425.277 734.562 423.807 737.092C420.527 742.932 411.802 745.492 405.832 742.037C396.159 736.437 395.525 715.737 400.492 706.832C402.497 703.227 405.792 701.902 409.757 701.107Z" fill="#104E7A"/>
<path d="M534.197 667.587C535.262 668.737 536.607 672.307 537.302 673.922C534.512 675.122 531.962 676.462 529.267 677.852C532.902 686.922 539.427 699.842 543.712 709.002C541.792 710.132 538.547 711.492 536.437 712.452L532.562 704.137C529.882 698.282 524.792 686.072 521.822 681.252C519.227 682.372 516.497 683.792 513.942 685.057C512.832 682.927 511.997 680.892 511.057 678.692C517.747 676.077 527.392 670.902 534.197 667.587Z" fill="#104E7A"/>
<path d="M226.843 652.572C231.33 654.687 244.171 662.687 249.131 665.577C248.063 667.492 246.42 669.777 245.166 671.632C242.304 669.882 240.355 668.862 237.33 667.392C233.153 674.037 228.907 681.662 224.915 688.487C223.382 691.217 221.65 693.947 220.004 696.617L213.309 692.622C218.566 683.142 225.142 672.672 230.737 663.177L223.389 658.337L226.843 652.572Z" fill="#104E7A"/>
<path d="M358.798 699.997C367.162 700.907 375.942 701.457 384.358 702.107C384.305 704.397 384.066 706.782 383.881 709.067C380.887 708.702 377.84 708.597 374.825 708.442C373.826 716.537 373.343 726.387 372.727 734.632L372.128 742.667L364.263 741.887C365.233 730.552 366.124 719.217 366.935 707.872C363.934 707.647 360.941 707.327 357.96 706.912C358.224 704.607 358.504 702.302 358.798 699.997Z" fill="#104E7A"/>
</svg>
